Coordinates
version=1
nRows=60
nColumns=12
inDegrees=yes

Units are S.I. units (second, meters, Newtons, ...)
Angles are in degrees

endheader
time	SC_y	SC_z	SC_x	AC_y	AC_z	AC_x	GH_y	GH_z	GH_yy	EL_x	PS_y
       0.0              -11.52          18.64          15.13          54.82         -11.74          8.177         -143.0         -19.36          87.28          43.75          114.8
   0.01867              -11.52          18.64          15.13          54.82         -11.74          8.174         -143.0         -19.35          87.25          43.75          114.8
   0.03734              -11.52          18.64          15.14          54.82         -11.74          8.171         -143.0         -19.35          87.21          43.75          114.8
     0.056              -11.52          18.63          15.15          54.82         -11.74          8.167         -143.0         -19.34          87.17          43.76          114.8
   0.07467              -11.52          18.63          15.15          54.82         -11.74          8.163         -143.0         -19.33          87.13          43.76          114.8
   0.09334              -11.53          18.63          15.16          54.82         -11.74          8.159         -143.0         -19.33          87.09          43.76          114.8
     0.112              -11.53          18.62          15.17          54.82         -11.74          8.154         -143.0         -19.32          87.04          43.77          114.7
    0.1307              -11.53          18.62          15.17          54.82         -11.74           8.15         -143.0         -19.31           87.0          43.77          114.7
    0.1493              -11.53          18.61          15.18          54.82         -11.75          8.145         -143.0          -19.3          86.94          43.77          114.7
     0.168              -11.53          18.61          15.19          54.82         -11.75          8.139         -143.0         -19.29          86.89          43.78          114.7
    0.1867              -11.53           18.6           15.2          54.82         -11.75          8.134         -143.0         -19.29          86.83          43.78          114.7
    0.2053              -11.53           18.6          15.21          54.82         -11.75          8.127         -143.0         -19.28          86.76          43.79          114.6
     0.224              -11.53          18.59          15.22          54.82         -11.75          8.121         -143.0         -19.26          86.69          43.79          114.6
    0.2427              -11.53          18.58          15.24          54.82         -11.75          8.113         -143.1         -19.25          86.61           43.8          114.6
    0.2614              -11.53          18.58          15.25          54.82         -11.75          8.105         -143.1         -19.24          86.53           43.8          114.6
      0.28              -11.53          18.57          15.26          54.82         -11.76          8.097         -143.1         -19.22          86.44          43.81          114.5
    0.2987              -11.54          18.56          15.28          54.83         -11.76          8.088         -143.1         -19.21          86.35          43.82          114.5
    0.3174              -11.54          18.55           15.3          54.83         -11.76          8.077         -143.1         -19.19          86.24          43.83          114.5
     0.336              -11.54          18.54          15.31          54.83         -11.76          8.066         -143.1         -19.17          86.13          43.84          114.4
    0.3547              -11.54          18.53          15.33          54.83         -11.77          8.054         -143.1         -19.15           86.0          43.84          114.4
    0.3734              -11.54          18.51          15.36          54.83         -11.77          8.041         -143.2         -19.13          85.86          43.86          114.3
     0.392              -11.54           18.5          15.38          54.83         -11.77          8.026         -143.2         -19.11          85.71          43.87          114.3
    0.4107              -11.55          18.49          15.41          54.83         -11.78           8.01         -143.2         -19.08          85.54          43.88          114.2
    0.4294              -11.55          18.47          15.44          54.83         -11.78          7.992         -143.2         -19.05          85.35          43.89          114.1
     0.448              -11.55          18.45          15.47          54.83         -11.79          7.973         -143.3         -19.02          85.14          43.91          114.1
    0.4667              -11.56          18.43          15.51          54.83         -11.79           7.95         -143.3         -18.98          84.91          43.93          114.0
    0.4854              -11.56          18.41          15.55          54.83          -11.8          7.925         -143.3         -18.94          84.65          43.95          113.9
     0.504              -11.56          18.38           15.6          54.83          -11.8          7.898         -143.4         -18.89          84.36          43.97          113.8
    0.5227              -11.57          18.35          15.65          54.83         -11.81          7.866         -143.4         -18.84          84.03          43.99          113.7
    0.5414              -11.57          18.32          15.71          54.83         -11.82           7.83         -143.5         -18.78          83.66          44.02          113.5
      0.56              -11.58          18.28          15.78          54.84         -11.83          7.789         -143.5         -18.72          83.23          44.05          113.4
    0.5787              -11.58          18.23          15.86          54.84         -11.84          7.742         -143.6         -18.64          82.74          44.09          113.2
    0.5974              -11.59          18.18          15.95          54.84         -11.85          7.688         -143.7         -18.55          82.17          44.13          113.0
     0.616               -11.6          18.12          16.05          54.84         -11.87          7.625         -143.8         -18.44          81.52          44.18          112.7
    0.6347              -11.61          18.05          16.18          54.84         -11.89          7.551         -143.9         -18.32          80.75          44.24          112.5
    0.6534              -11.62          17.97          16.32          54.85         -11.91          7.464         -144.0         -18.18          79.84          44.31          112.1
     0.672              -11.64          17.87           16.5          54.85         -11.93          7.361         -144.2         -18.01          78.76          44.39          111.7
    0.6907              -11.66          17.75           16.7          54.86         -11.96          7.237         -144.4          -17.8          77.47          44.49          111.3
    0.7094              -11.68          17.61          16.95          54.86         -11.99          7.087         -144.6         -17.55           75.9          44.61          110.7
     0.728               -11.7          17.44          17.26          54.87         -12.04          6.904         -144.9         -17.25          73.99          44.75          110.0
    0.7467              -11.74          17.23          17.64          54.88         -12.09          6.679         -145.2         -16.88          71.63          44.93          109.2
    0.7654              -11.78          16.96          18.11          54.89         -12.16          6.397         -145.6         -16.41          68.69          45.15          108.1
    0.7841              -11.83          16.62           18.7           54.9         -12.24          6.042         -146.1         -15.83          64.99          45.43          106.8
    0.8027              -11.89           16.2          19.46          54.92         -12.35          5.591         -146.8         -15.08          60.28          45.78          105.0
    0.8214              -11.98          15.65          20.42          54.94         -12.48          5.014         -147.7         -14.12          54.25          46.24          102.9
    0.8401              -12.08          14.95          21.66          54.96         -12.66          4.273         -148.8          -12.9          46.52          46.82          100.1
    0.8587              -12.22          14.05          23.25           55.0         -12.88          3.327         -150.2         -11.33          36.64          47.56          96.48
    0.8774              -12.39          12.93          25.24          55.04         -13.16          2.137         -152.0         -9.364          24.21           48.5          91.97
    0.8961               -12.6          11.55          27.67           55.1         -13.51         0.6871         -154.1         -6.966          9.076          49.64          86.49
    0.9147              -12.84          9.964          30.48          55.16          -13.9        -0.9935         -156.6         -4.185         -8.472          50.96          80.13
    0.9334               -13.1          8.242          33.53          55.22         -14.33         -2.813         -159.3         -1.174         -27.47           52.4          73.24
    0.9521              -13.36           6.52          36.57          55.29         -14.76         -4.633         -162.1          1.837         -46.47          53.83          66.35
    0.9707               -13.6          4.929          39.38          55.35         -15.16         -6.314         -164.6          4.617         -64.02          55.15          59.99
    0.9894              -13.81          3.557          41.81          55.41          -15.5         -7.764         -166.7          7.016         -79.16          56.29           54.5
     1.008              -13.98          2.431           43.8          55.45         -15.78         -8.953         -168.5          8.984         -91.58          57.23           50.0
     1.027              -14.11          1.535          45.39          55.48         -16.01           -9.9         -169.9          10.55         -101.5          57.97          46.42
     1.045              -14.22         0.8339          46.63          55.51         -16.18         -10.64         -171.0          11.78         -109.2          58.55          43.61
     1.064               -14.3         0.2875          47.59          55.53         -16.32         -11.22         -171.9          12.73         -115.2          59.01          41.43
     1.083              -14.36        -0.1393          48.35          55.55         -16.42         -11.67         -172.5          13.48         -119.9          59.36          39.72
     1.101              -14.42        -0.4751          48.94          55.56         -16.51         -12.02         -173.1          14.06         -123.6          59.64          38.38
